<svg width="59" height="59" viewBox="0 0 59 59" fill="none" xmlns="http://www.w3.org/2000/svg">
<path d="M57.999 0.00095174V29C57.999 29.0447 57.999 29.0885 57.9971 29.1332C57.9857 32.1153 57.5214 34.9928 56.6717 37.697C56.0322 39.7381 55.172 41.6821 54.1196 43.4995C52.8455 45.7004 51.2907 47.7196 49.5047 49.5056C47.7186 51.2917 45.6995 52.8465 43.4986 54.1206C41.605 55.2158 39.5763 56.1036 37.442 56.7506C34.7711 57.5632 31.9364 58 29.0009 58H28.9981C26.0455 58 23.1966 57.5594 20.5132 56.7383C18.3951 56.0912 16.3817 55.2091 14.5005 54.1215C12.2996 52.8474 10.2804 51.2926 8.49437 49.5066C6.70834 47.7205 5.15353 45.7014 3.87942 43.5005C2.81179 41.6535 1.94114 39.6791 1.29885 37.6038C0.467207 34.9262 0.0133234 32.083 0.00190493 29.1351C1.85858e-06 29.0904 0 29.0466 0 29.0019V0.00095174C2.96499 0.00095174 5.82722 0.446271 8.52102 1.27506C10.6258 1.91925 12.6298 2.79847 14.4995 3.88037C18.9023 6.42763 22.5743 10.0977 25.1196 14.5005C26.1768 16.3303 27.0417 18.2857 27.6831 20.3382C28.5385 23.0729 28.999 25.9827 28.999 29C28.999 26.0169 29.4491 23.1404 30.2855 20.4333C30.9297 18.3447 31.8032 16.3569 32.8775 14.4995C34.1516 12.2986 35.7045 10.2795 37.4925 8.49342C39.2785 6.70739 41.2977 5.15257 43.4986 3.87847C45.3569 2.80513 47.3447 1.93067 49.4333 1.28648C52.1404 0.449125 55.0169 0 57.9981 0L57.999 0.00095174Z" fill="#68AAFF"/>
</svg>
