<svg width="20" height="20" viewBox="0 0 20 20" fill="none" xmlns="http://www.w3.org/2000/svg">
<path d="M10.5866 16.2883C10.4992 16.2012 10.4298 16.0977 10.3825 15.9837C10.3352 15.8698 10.3108 15.7476 10.3108 15.6242C10.3108 15.5008 10.3352 15.3787 10.3825 15.2647C10.4298 15.1507 10.4992 15.0472 10.5866 14.9602L14.6092 10.9375L3.12485 10.9375C2.87621 10.9375 2.63775 10.8387 2.46193 10.6629C2.28612 10.4871 2.18735 10.2486 2.18735 10C2.18735 9.75136 2.28612 9.5129 2.46193 9.33708C2.63775 9.16127 2.87621 9.0625 3.12485 9.0625L14.6092 9.0625L10.5866 5.03828C10.4104 4.86216 10.3115 4.62329 10.3115 4.37422C10.3115 4.12514 10.4104 3.88627 10.5866 3.71015C10.7627 3.53403 11.0016 3.43509 11.2506 3.43509C11.4997 3.43509 11.7386 3.53403 11.9147 3.71015L17.5397 9.33515C17.6271 9.42225 17.6964 9.52574 17.7438 9.6397C17.7911 9.75365 17.8154 9.87583 17.8154 9.99922C17.8154 10.1226 17.7911 10.2448 17.7438 10.3587C17.6964 10.4727 17.6271 10.5762 17.5397 10.6633L11.9147 16.2883C11.8276 16.3757 11.7241 16.445 11.6101 16.4923C11.4962 16.5397 11.374 16.564 11.2506 16.564C11.1272 16.564 11.0051 16.5397 10.8911 16.4923C10.7772 16.445 10.6737 16.3757 10.5866 16.2883Z" fill="white"/>
</svg>
