<svg width="189" height="208" viewBox="0 0 189 208" fill="none" xmlns="http://www.w3.org/2000/svg">
<path d="M11.6336 0C-4.55814 0 -19.2165 6.56444 -29.827 17.173C-40.4356 27.7815 -47 42.4419 -47 58.6336C-47 74.8254 -40.4356 89.4838 -29.827 100.094C-19.2185 110.703 -4.55814 117.267 11.6336 117.267C27.8254 117.267 42.4838 110.703 53.0943 100.094C63.7029 89.4858 70.2673 74.8254 70.2673 58.6336C70.2673 26.252 44.0153 0 11.6336 0ZM32.312 79.312C27.0212 84.6028 19.7084 87.8774 11.6336 87.8774C3.55892 87.8774 -3.75393 84.6048 -9.04474 79.312C-14.3355 74.0212 -17.6101 66.7084 -17.6101 58.6336C-17.6101 50.5589 -14.3375 43.2461 -9.04474 37.9553C-3.75393 32.6645 3.55892 29.3899 11.6336 29.3899C27.7831 29.3899 40.8774 42.4842 40.8774 58.6336C40.8774 66.7084 37.6048 74.0212 32.312 79.312Z" fill="#00A651"/>
<path d="M11.9014 235.605C-4.3624 235.605 -19.0897 229.013 -29.7486 218.354C-40.4075 207.695 -47 192.97 -47 176.704C-14.4686 176.704 11.9014 203.076 11.9014 235.605Z" fill="#FFF200"/>
<path d="M70.2673 176.704C70.2673 192.97 63.7347 207.695 53.1727 218.354C42.6107 229.013 28.0192 235.605 11.9014 235.605C11.9014 203.076 38.0335 176.704 70.2673 176.704Z" fill="#FFF200"/>
<path d="M70.2673 117.267C54.1514 117.267 39.558 123.919 28.9959 134.675C18.4339 145.431 11.9014 160.29 11.9014 176.704C44.1371 176.704 70.2673 150.092 70.2673 117.267Z" fill="#FFF200"/>
<path d="M11.9014 176.704C11.9014 160.29 5.3089 145.431 -5.35002 134.675C-16.0089 123.92 -30.7343 117.267 -47 117.267C-47 133.679 -40.4075 148.54 -29.7486 159.296C-19.0897 170.052 -4.3624 176.704 11.9014 176.704Z" fill="#FFF200"/>
<path d="M188.605 58.9014H70.2671C70.2671 75.0192 76.8895 89.6088 87.5969 100.173C98.3043 110.735 113.097 117.267 129.436 117.267C162.114 117.267 188.605 91.1351 188.605 58.9014Z" fill="#5B7FAD"/>
<path d="M188.605 0C188.605 16.2657 181.983 30.9911 171.276 41.65C160.566 52.3089 145.776 58.9014 129.436 58.9014C113.097 58.9014 98.3043 52.3089 87.5969 41.65C76.8895 30.9911 70.2671 16.2657 70.2671 0H188.605Z" fill="#5B7FAD"/>
<path d="M129.704 146.986C129.704 155.191 126.377 162.621 121 168C115.623 173.377 108.192 176.704 99.9855 176.704C91.7787 176.704 84.3481 173.377 78.9712 168C73.5943 162.621 70.2671 155.191 70.2671 146.986C70.2671 138.782 73.5943 131.35 78.9712 125.973C84.3481 120.594 91.7787 117.267 99.9855 117.267C116.399 117.267 129.704 130.573 129.704 146.986Z" fill="#F5846F"/>
<path d="M188.605 146.986C188.605 155.191 185.308 162.621 179.98 168C174.65 173.377 167.286 176.704 159.154 176.704C151.021 176.704 143.66 173.377 138.33 168C133.001 162.621 129.704 155.191 129.704 146.986C129.704 138.782 133.001 131.35 138.33 125.973C143.66 120.594 151.021 117.267 159.154 117.267C175.419 117.267 188.605 130.573 188.605 146.986Z" fill="#F5846F"/>
<path d="M188.605 235.605H129.434C118.657 235.605 108.556 232.735 99.8526 227.724C95.3601 225.14 91.2423 221.982 87.5983 218.354C83.9542 214.726 80.7819 210.629 78.1862 206.155C73.1928 197.566 70.3195 187.603 70.271 176.979C70.2671 176.888 70.2671 176.795 70.2671 176.704H129.434C140.308 176.704 150.499 179.624 159.255 184.721C168.131 189.887 175.534 197.291 180.684 206.155C185.718 214.817 188.601 224.877 188.601 235.605H188.605Z" fill="#A1CD43"/>
</svg>
