<svg width="220" height="203" viewBox="0 0 220 203" fill="none" xmlns="http://www.w3.org/2000/svg">
<path d="M58.9014 118.338C42.6376 118.338 27.9103 111.686 17.2514 100.93C6.59249 90.1744 0 75.3152 0 58.9016C32.5314 58.9016 58.9014 85.5132 58.9014 118.338Z" fill="#F5846F"/>
<path d="M117.803 58.9016C117.803 75.3152 111.21 90.1744 100.551 100.93C89.8924 111.686 75.1671 118.338 58.9014 118.338C58.9014 85.5132 85.2732 58.9016 117.803 58.9016Z" fill="#F5846F"/>
<path d="M117.803 0C101.539 0 86.8117 6.59249 76.1528 17.2514C65.4939 27.9103 58.9014 42.6357 58.9014 58.9014C91.4328 58.9014 117.803 32.5295 117.803 0Z" fill="#F5846F"/>
<path d="M58.9014 58.9014C58.9014 42.6357 52.3089 27.9103 41.65 17.2514C30.9911 6.59249 16.2657 0 0 0C0 16.2638 6.59249 30.9911 17.2514 41.65C27.9103 52.3089 42.6376 58.9014 58.9014 58.9014Z" fill="#F5846F"/>
<path d="M176.704 118.338V235.606C160.438 235.606 145.715 229.043 135.054 218.433C124.395 207.822 117.803 193.164 117.803 176.972C117.803 144.59 144.175 118.338 176.704 118.338Z" fill="#C2D952"/>
<path d="M235.605 118.338C219.34 118.338 204.614 124.901 193.956 135.511C183.297 146.124 176.704 160.78 176.704 176.972C176.704 193.164 183.297 207.822 193.956 218.433C204.614 229.043 219.34 235.606 235.605 235.606V118.338Z" fill="#C2D952"/>
<path d="M176.704 0C176.704 16.2657 170.112 30.9911 159.453 41.65C148.793 52.3089 134.07 58.9014 117.805 58.9014H117.803V0H176.704Z" fill="#5B7FAD"/>
<path d="M176.704 118.338H117.803V58.9016H117.805C150.333 58.9016 176.704 85.5132 176.704 118.338Z" fill="#5B7FAD"/>
<path d="M235.605 0V58.9014C219.34 58.9014 204.614 52.3089 193.956 41.65C183.297 30.9911 176.704 16.2657 176.704 0H235.605Z" fill="#5B7FAD"/>
<path d="M235.605 58.9016V118.338H176.704C176.704 85.5132 203.074 58.9016 235.605 58.9016Z" fill="#5B7FAD"/>
<path d="M1 235.33H118.264V118.599C53.5007 118.599 1 170.861 1 235.33Z" fill="#ED1C24"/>
<path d="M15 235.599H118V132.599C61.1147 132.599 15 178.713 15 235.599Z" fill="#FFEFC0"/>
<path d="M101.012 203.12C101.275 201.5 100.175 199.974 98.5555 199.711C96.9358 199.448 95.4096 200.548 95.1467 202.168C94.8838 203.787 95.9837 205.313 97.6034 205.576C99.2231 205.839 100.749 204.739 101.012 203.12Z" fill="#231F20"/>
<path d="M112.669 203.12C112.932 201.5 111.832 199.974 110.213 199.711C108.593 199.448 107.067 200.548 106.804 202.168C106.541 203.787 107.641 205.313 109.261 205.576C110.88 205.839 112.406 204.739 112.669 203.12Z" fill="#231F20"/>
<path d="M88.4289 203.119C88.6918 201.499 87.5919 199.973 85.9722 199.71C84.3525 199.447 82.8264 200.547 82.5634 202.166C82.3005 203.786 83.4005 205.312 85.0201 205.575C86.6398 205.838 88.166 204.738 88.4289 203.119Z" fill="#231F20"/>
<path d="M75.8449 203.118C76.1078 201.498 75.0079 199.972 73.3883 199.709C71.7686 199.446 70.2424 200.546 69.9795 202.166C69.7165 203.785 70.8165 205.312 72.4362 205.574C74.0558 205.837 75.582 204.737 75.8449 203.118Z" fill="#231F20"/>
<path d="M63.2595 203.12C63.5224 201.5 62.4225 199.974 60.8028 199.711C59.1831 199.448 57.6569 200.548 57.394 202.168C57.1311 203.787 58.231 205.313 59.8507 205.576C61.4704 205.839 62.9965 204.739 63.2595 203.12Z" fill="#231F20"/>
<path d="M50.7175 202.962C50.8793 201.329 49.6868 199.874 48.0539 199.713C46.421 199.551 44.9661 200.743 44.8043 202.376C44.6424 204.009 45.835 205.464 47.4679 205.626C49.1008 205.788 50.5557 204.595 50.7175 202.962Z" fill="#231F20"/>
<path d="M38.133 202.96C38.2948 201.327 37.1023 199.872 35.4694 199.711C33.8366 199.549 32.3816 200.741 32.2198 202.374C32.0579 204.007 33.2505 205.462 34.8834 205.624C36.5163 205.786 37.9712 204.593 38.133 202.96Z" fill="#231F20"/>
<path d="M22.3433 199.646C22.4682 199.626 22.5967 199.618 22.7269 199.618C24.2669 199.618 25.5191 200.93 25.5191 202.549C25.5191 204.167 24.2687 205.481 22.7269 205.481C21.9434 205.481 21.2304 205.139 20.7219 204.592L22.3433 199.648V199.646Z" fill="#231F20"/>
<path d="M98.0096 193.221C99.4814 193.221 100.675 191.909 100.675 190.29C100.675 188.67 99.4814 187.358 98.0096 187.358C96.5377 187.358 95.3445 188.67 95.3445 190.29C95.3445 191.909 96.5377 193.221 98.0096 193.221Z" fill="#231F20"/>
<path d="M109.666 193.221C111.138 193.221 112.331 191.909 112.331 190.29C112.331 188.67 111.138 187.358 109.666 187.358C108.194 187.358 107.001 188.67 107.001 190.29C107.001 191.909 108.194 193.221 109.666 193.221Z" fill="#231F20"/>
<path d="M85.4836 193.221C87.1027 193.221 88.4152 191.909 88.4152 190.29C88.4152 188.67 87.1027 187.358 85.4836 187.358C83.8645 187.358 82.552 188.67 82.552 190.29C82.552 191.909 83.8645 193.221 85.4836 193.221Z" fill="#231F20"/>
<path d="M72.6911 193.221C74.3102 193.221 75.6227 191.909 75.6227 190.29C75.6227 188.67 74.3102 187.358 72.6911 187.358C71.072 187.358 69.7595 188.67 69.7595 190.29C69.7595 191.909 71.072 193.221 72.6911 193.221Z" fill="#231F20"/>
<path d="M60.1652 193.221C61.9314 193.221 63.3633 191.909 63.3633 190.29C63.3633 188.67 61.9314 187.358 60.1652 187.358C58.3989 187.358 56.967 188.67 56.967 190.29C56.967 191.909 58.3989 193.221 60.1652 193.221Z" fill="#231F20"/>
<path d="M47.6391 193.221C49.2582 193.221 50.5707 191.909 50.5707 190.29C50.5707 188.67 49.2582 187.358 47.6391 187.358C46.02 187.358 44.7075 188.67 44.7075 190.29C44.7075 191.909 46.02 193.221 47.6391 193.221Z" fill="#231F20"/>
<path d="M35.1131 193.221C36.8794 193.221 38.3113 191.909 38.3113 190.29C38.3113 188.67 36.8794 187.358 35.1131 187.358C33.3469 187.358 31.915 188.67 31.915 190.29C31.915 191.909 33.3469 193.221 35.1131 193.221Z" fill="#231F20"/>
<path d="M100.81 178.585C101.438 177.069 100.718 175.331 99.2025 174.703C97.6865 174.075 95.9485 174.795 95.3206 176.311C94.6926 177.827 95.4125 179.565 96.9285 180.193C98.4445 180.821 100.183 180.101 100.81 178.585Z" fill="#231F20"/>
<path d="M112.467 178.585C113.095 177.069 112.375 175.331 110.859 174.703C109.343 174.075 107.605 174.795 106.977 176.311C106.349 177.827 107.069 179.565 108.585 180.193C110.101 180.821 111.839 180.101 112.467 178.585Z" fill="#231F20"/>
<path d="M88.227 178.586C88.8549 177.07 88.135 175.332 86.619 174.704C85.103 174.076 83.365 174.796 82.7371 176.312C82.1091 177.828 82.829 179.566 84.345 180.194C85.861 180.822 87.599 180.102 88.227 178.586Z" fill="#231F20"/>
<path d="M75.642 178.585C76.2699 177.069 75.55 175.331 74.034 174.703C72.5181 174.075 70.7801 174.795 70.1521 176.311C69.5242 177.827 70.2441 179.565 71.7601 180.193C73.276 180.821 75.0141 180.101 75.642 178.585Z" fill="#231F20"/>
<path d="M63.058 178.586C63.686 177.07 62.966 175.332 61.4501 174.704C59.9341 174.076 58.1961 174.796 57.5682 176.312C56.9402 177.828 57.6601 179.566 59.1761 180.194C60.6921 180.822 62.4301 180.102 63.058 178.586Z" fill="#231F20"/>
<path d="M50.6084 178.102C50.9853 176.505 49.9962 174.905 48.3992 174.528C46.8022 174.151 45.202 175.14 44.8251 176.737C44.4481 178.334 45.4372 179.934 47.0342 180.311C48.6312 180.688 50.2314 179.699 50.6084 178.102Z" fill="#231F20"/>
<path d="M35.8315 174.566C37.2519 174.866 38.311 176.046 38.311 177.46C38.311 179.098 36.8865 180.429 35.1255 180.429C34.0044 180.429 33.0155 179.886 32.4478 179.067L35.8315 174.566Z" fill="#231F20"/>
<path d="M100.809 166.001C101.437 164.485 100.717 162.747 99.201 162.119C97.685 161.491 95.9471 162.211 95.3191 163.727C94.6912 165.243 95.4111 166.981 96.927 167.609C98.443 168.237 100.181 167.517 100.809 166.001Z" fill="#231F20"/>
<path d="M112.466 166.001C113.094 164.485 112.374 162.747 110.858 162.119C109.342 161.491 107.604 162.211 106.976 163.727C106.348 165.243 107.068 166.981 108.584 167.609C110.1 168.237 111.838 167.517 112.466 166.001Z" fill="#231F20"/>
<path d="M88.2259 166C88.8539 164.484 88.134 162.746 86.618 162.118C85.102 161.49 83.364 162.21 82.7361 163.726C82.1082 165.242 82.8281 166.98 84.344 167.608C85.86 168.236 87.598 167.516 88.2259 166Z" fill="#231F20"/>
<path d="M75.6429 166.001C76.2709 164.485 75.551 162.747 74.035 162.119C72.519 161.491 70.781 162.211 70.1531 163.727C69.5252 165.243 70.245 166.981 71.761 167.609C73.277 168.237 75.015 167.517 75.6429 166.001Z" fill="#231F20"/>
<path d="M63.059 166.003C63.6869 164.487 62.967 162.749 61.451 162.121C59.935 161.493 58.1971 162.213 57.5691 163.729C56.9412 165.245 57.6611 166.983 59.177 167.611C60.693 168.239 62.431 167.519 63.059 166.003Z" fill="#231F20"/>
<path d="M50.6095 165.52C50.9865 163.923 49.9974 162.323 48.4004 161.946C46.8034 161.569 45.2032 162.558 44.8263 164.155C44.4494 165.752 45.4384 167.352 47.0354 167.729C48.6324 168.106 50.2326 167.117 50.6095 165.52Z" fill="#231F20"/>
<path d="M98.0096 154.844C99.4814 154.844 100.675 153.651 100.675 152.179C100.675 150.707 99.4814 149.514 98.0096 149.514C96.5377 149.514 95.3445 150.707 95.3445 152.179C95.3445 153.651 96.5377 154.844 98.0096 154.844Z" fill="#231F20"/>
<path d="M109.666 154.844C111.138 154.844 112.331 153.651 112.331 152.179C112.331 150.707 111.138 149.514 109.666 149.514C108.194 149.514 107.001 150.707 107.001 152.179C107.001 153.651 108.194 154.844 109.666 154.844Z" fill="#231F20"/>
<path d="M85.4836 154.844C87.1027 154.844 88.4152 153.651 88.4152 152.179C88.4152 150.707 87.1027 149.514 85.4836 149.514C83.8645 149.514 82.552 150.707 82.552 152.179C82.552 153.651 83.8645 154.844 85.4836 154.844Z" fill="#231F20"/>
<path d="M72.6911 154.844C74.3102 154.844 75.6227 153.651 75.6227 152.179C75.6227 150.707 74.3102 149.514 72.6911 149.514C71.072 149.514 69.7595 150.707 69.7595 152.179C69.7595 153.651 71.072 154.844 72.6911 154.844Z" fill="#231F20"/>
<path d="M62.0226 150.046C62.8316 150.514 63.3632 151.318 63.3632 152.23C63.3632 153.675 62.0322 154.844 60.3912 154.844C58.9831 154.844 57.8024 153.983 57.5 152.824L62.0226 150.046Z" fill="#231F20"/>
<path d="M101.013 140.198C101.276 138.579 100.176 137.052 98.5562 136.79C96.9365 136.527 95.4103 137.627 95.1474 139.246C94.8845 140.866 95.9844 142.392 97.6041 142.655C99.2238 142.918 100.75 141.818 101.013 140.198Z" fill="#231F20"/>
<path d="M112.67 140.198C112.933 138.579 111.833 137.052 110.213 136.79C108.594 136.527 107.068 137.627 106.805 139.246C106.542 140.866 107.642 142.392 109.261 142.655C110.881 142.918 112.407 141.818 112.67 140.198Z" fill="#231F20"/>
<path d="M82.552 139.454C82.552 139.327 82.5577 139.203 82.5729 139.083C84.2158 138.428 85.8815 137.818 87.5681 137.254C88.0923 137.82 88.4152 138.596 88.4152 139.454C88.4152 141.18 87.1028 142.584 85.4846 142.584C83.8663 142.584 82.552 141.182 82.552 139.454Z" fill="#231F20"/>
</svg>
