<svg width="59" height="59" viewBox="0 0 59 59" fill="none" xmlns="http://www.w3.org/2000/svg">
<path d="M-1.27391e-06 29.1437L58.2872 29.1437C58.2872 37.1918 55.0253 44.4767 49.7514 49.7516C44.4776 55.0255 37.1917 58.2874 29.1436 58.2874C13.0484 58.2874 -5.70366e-07 45.2389 -1.27391e-06 29.1437Z" fill="#00A651"/>
<path d="M-1.27391e-06 -5.14984e-05C-9.22116e-07 8.04801 3.26187 15.3339 8.53576 20.6078C13.8106 25.8817 21.0955 29.1436 29.1436 29.1436C37.1917 29.1436 44.4776 25.8817 49.7514 20.6078C55.0253 15.3339 58.2872 8.048 58.2872 -5.40462e-05L-1.27391e-06 -5.14984e-05Z" fill="#C2D952"/>
</svg>
