<svg width="32" height="32" viewBox="0 0 32 32" fill="none" xmlns="http://www.w3.org/2000/svg">

<path d="M18.5471 13.4533C19.2225 14.1287 19.602 15.0448 19.602 16C19.602 16.9552 19.2225 17.8712 18.5471 18.5466C17.8717 19.2221 16.9556 19.6015 16.0005 19.6015C15.0453 19.6015 14.1292 19.2221 13.4538 18.5466C12.7784 17.8712 12.3989 16.9552 12.3989 16C12.3989 15.527 12.4921 15.0587 12.6731 14.6217C12.8541 14.1848 13.1194 13.7877 13.4538 13.4533C13.7882 13.1189 14.1853 12.8536 14.6222 12.6726C15.0592 12.4916 15.5275 12.3984 16.0005 12.3984C16.9556 12.3984 17.8717 12.7779 18.5471 13.4533" stroke="#8FA2B7" stroke-width="1.5" stroke-linecap="round" stroke-linejoin="round"/>
<path d="M7.00023 16C7.00023 16.396 7.03623 16.792 7.08423 17.176L4.9669 18.832C4.73981 19.0098 4.58455 19.2637 4.52968 19.5469C4.47481 19.8301 4.52401 20.1235 4.66823 20.3733L6.5509 23.6307C6.69508 23.8801 6.92438 24.0692 7.19672 24.1633C7.46906 24.2573 7.76618 24.25 8.03357 24.1427L9.92957 23.3813C10.1141 23.3099 10.3134 23.2846 10.5099 23.3076C10.7065 23.3306 10.8945 23.4012 11.0576 23.5133C11.3509 23.708 11.6549 23.8867 11.9696 24.0467C12.3296 24.2293 12.5909 24.556 12.6482 24.956L12.9376 26.9733C13.0216 27.5627 13.5269 28 14.1216 28H17.8776C18.1654 28 18.4437 27.8962 18.6611 27.7076C18.8786 27.519 19.0208 27.2583 19.0616 26.9733L19.3509 24.9573C19.3824 24.7616 19.461 24.5765 19.58 24.4178C19.6989 24.2592 19.8545 24.1318 20.0336 24.0467C20.3469 23.8893 20.6496 23.712 20.9416 23.5187C21.1051 23.4053 21.2938 23.3337 21.4913 23.3099C21.6889 23.2862 21.8892 23.3112 22.0749 23.3827L23.9669 24.1427C24.2343 24.2497 24.5313 24.2569 24.8036 24.1629C25.0759 24.0688 25.3052 23.8799 25.4496 23.6307L27.3322 20.3733C27.4765 20.1235 27.5257 19.8301 27.4708 19.5469C27.4159 19.2637 27.2607 19.0098 27.0336 18.832L24.9162 17.176C24.9642 16.792 25.0002 16.396 25.0002 16C25.0002 15.604 24.9642 15.208 24.9162 14.824L27.0336 13.168C27.2607 12.9902 27.4159 12.7363 27.4708 12.4531C27.5257 12.1699 27.4765 11.8765 27.3322 11.6267L25.4496 8.36933C25.3054 8.11988 25.0761 7.93078 24.8037 7.83674C24.5314 7.74269 24.2343 7.75 23.9669 7.85733L22.0749 8.61733C21.8892 8.68845 21.6889 8.71323 21.4914 8.68953C21.2939 8.66584 21.1052 8.59438 20.9416 8.48133C20.6497 8.2874 20.3465 8.11109 20.0336 7.95333C19.8545 7.86818 19.6989 7.7408 19.58 7.58217C19.461 7.42354 19.3824 7.2384 19.3509 7.04267L19.0629 5.02667C19.0221 4.7417 18.88 4.48099 18.6625 4.2924C18.445 4.10381 18.1668 3.99999 17.8789 4H14.1229C13.835 3.99999 13.5568 4.10381 13.3393 4.2924C13.1218 4.48099 12.9797 4.7417 12.9389 5.02667L12.6482 7.04533C12.6167 7.24035 12.5385 7.42487 12.4204 7.58319C12.3022 7.74151 12.1476 7.86895 11.9696 7.95467C11.6549 8.11467 11.3509 8.29467 11.0576 8.488C10.894 8.59961 10.7057 8.66981 10.509 8.69258C10.3123 8.71534 10.113 8.68997 9.92823 8.61867L8.03357 7.85733C7.76618 7.75 7.46906 7.74269 7.19672 7.83674C6.92438 7.93078 6.69508 8.11988 6.5509 8.36933L4.66823 11.6267C4.52401 11.8765 4.47481 12.1699 4.52968 12.4531C4.58455 12.7363 4.73981 12.9902 4.9669 13.168L7.08423 14.824C7.03196 15.2139 7.0039 15.6066 7.00023 16V16Z" stroke="#8FA2B7" stroke-width="1.5" stroke-linecap="round" stroke-linejoin="round"/>
</svg>
