<svg width="58" height="58" viewBox="0 0 58 58" fill="none" xmlns="http://www.w3.org/2000/svg">
<path d="M43.5003 32.8799C47.9031 35.4262 51.5732 39.0964 54.1205 43.4992C56.5879 47.764 58 52.7169 58 57.9989C52.7179 57.9989 47.7651 56.5859 43.5003 54.1185C41.2993 52.8444 39.2801 51.2914 37.4941 49.5054C35.7071 47.7193 34.1532 45.702 32.8791 43.4992C30.4117 39.2343 28.9996 34.2815 28.9996 28.9995C34.2816 28.9995 39.2345 30.4125 43.4993 32.8799L43.5003 32.8799Z" fill="#FFCB05"/>
<path d="M58 0.00022316C52.7179 0.000222929 47.7651 1.41328 43.5003 3.88065C41.2993 5.15477 39.2801 6.7077 37.4941 8.49376C35.7071 10.2798 34.1532 12.2971 32.8791 14.5C30.4117 18.7648 28.9996 23.7176 28.9996 28.9997C34.2816 28.9997 39.2345 27.5866 43.4993 25.1193C45.7003 23.8451 47.7194 22.2922 49.5055 20.5061C51.2925 18.7201 52.8464 16.7028 54.1205 14.5C56.5879 10.2351 58 5.28228 58 0.00022316Z" fill="#A583A2"/>
<path d="M29.0005 28.9995C23.6908 28.9995 18.7133 30.4268 14.4342 32.9189C12.258 34.1835 10.2635 35.725 8.49457 37.493C6.70756 39.2791 5.15368 41.2964 3.87955 43.4992C1.41218 47.764 7.84322e-05 52.7169 7.82013e-05 57.9989C5.28214 57.9989 10.235 56.5859 14.4998 54.1185C16.7007 52.8444 18.7199 51.2914 20.506 49.5054C22.2616 47.7517 23.7917 45.7725 25.0506 43.6172C27.5617 39.3257 28.9995 34.33 28.9995 28.9995L29.0005 28.9995Z" fill="#FFCB05"/>
<path d="M14.5008 3.88065C18.8646 6.40321 22.509 10.0315 25.0516 14.382C27.5627 18.6735 29.0005 23.6691 29.0005 28.9997C23.6908 28.9997 18.7133 27.5724 14.4342 25.0802C12.258 23.8156 10.2635 22.2741 8.49457 20.5061C6.70756 18.7201 5.15368 16.7028 3.87955 14.5C1.41218 10.2351 7.9238e-05 5.28228 7.94689e-05 0.000221892C5.28214 0.000222123 10.235 1.41328 14.4998 3.88065L14.5008 3.88065ZM4.46951 11.043L4.46951 11.0449C4.51423 11.043 4.55896 11.043 4.60463 11.043L4.46951 11.043Z" fill="#A583A2"/>
</svg>
