<svg width="58" height="58" viewBox="0 0 58 58" fill="none" xmlns="http://www.w3.org/2000/svg">
<path d="M58.0001 29.0004C58.0001 37.0077 54.7543 44.2586 49.5065 49.5064C44.2587 54.7542 37.0088 58 29.0005 58C29.0005 41.9834 41.9845 29.0004 58.0001 29.0004Z" fill="#F15A22"/>
<path d="M28.9995 -9.53674e-06C37.0078 -9.8868e-06 44.2577 3.24575 49.5055 8.49359C54.7533 13.7414 57.9991 20.9913 57.9991 28.9996C41.9835 28.9996 28.9995 16.0156 28.9995 -9.53674e-06Z" fill="#F15A22"/>
<path d="M-1.26761e-06 -9.53674e-06C-9.176e-07 8.00734 3.24575 15.2582 8.49358 20.506C13.7414 25.7539 20.9913 28.9996 28.9996 28.9996C28.9996 12.983 16.0156 -1.02368e-05 -1.26761e-06 -9.53674e-06Z" fill="#FBD873"/>
<path d="M28.9996 29.0004C20.9913 29.0004 13.7414 32.2461 8.49358 37.494C3.24575 42.7418 -3.50053e-07 49.9917 0 58C8.00733 58 15.2582 54.7542 20.506 49.5064C25.7538 44.2586 28.9996 37.0077 28.9996 29.0004Z" fill="#FBD873"/>
</svg>
